<mxfile host="app.diagrams.net" modified="2024-06-04T05:16:04.170Z" agent="Mozilla/5.0 (Windows NT 10.0; Win64; x64) AppleWebKit/537.36 (KHTML, like Gecko) Chrome/125.0.0.0 Safari/537.36" etag="0oeGVZ5KOLUoE_0-g8p6" version="24.4.13" type="device">
  <diagram name="Trang-1" id="Is00PIFVjggMei35HA1T">
    <mxGraphModel dx="1050" dy="522" grid="1" gridSize="10" guides="1" tooltips="1" connect="1" arrows="1" fold="1" page="1" pageScale="1" pageWidth="827" pageHeight="1169" math="0" shadow="0">
      <root>
        <mxCell id="0" />
        <mxCell id="1" parent="0" />
        <mxCell id="IO_G3gP7IxYUmLnRqnUz-1" value="&lt;font style=&quot;font-size: 18px;&quot; face=&quot;Roboto&quot;&gt;Employee&lt;/font&gt;" style="rounded=0;whiteSpace=wrap;html=1;" parent="1" vertex="1">
          <mxGeometry x="130" y="190" width="100" height="50" as="geometry" />
        </mxCell>
        <mxCell id="IO_G3gP7IxYUmLnRqnUz-4" value="&lt;font style=&quot;font-size: 18px;&quot; face=&quot;Roboto&quot;&gt;Department&lt;/font&gt;" style="rounded=0;whiteSpace=wrap;html=1;" parent="1" vertex="1">
          <mxGeometry x="730" y="190" width="120" height="50" as="geometry" />
        </mxCell>
        <mxCell id="IO_G3gP7IxYUmLnRqnUz-6" value="&lt;font style=&quot;font-size: 18px;&quot; face=&quot;Roboto&quot;&gt;CÃ³&lt;/font&gt;" style="rhombus;whiteSpace=wrap;html=1;" parent="1" vertex="1">
          <mxGeometry x="440" y="175" width="80" height="80" as="geometry" />
        </mxCell>
        <mxCell id="IO_G3gP7IxYUmLnRqnUz-7" value="" style="endArrow=classic;html=1;rounded=0;entryX=1;entryY=0.5;entryDx=0;entryDy=0;" parent="1" source="IO_G3gP7IxYUmLnRqnUz-6" target="IO_G3gP7IxYUmLnRqnUz-1" edge="1">
          <mxGeometry width="50" height="50" relative="1" as="geometry">
            <mxPoint x="570" y="290" as="sourcePoint" />
            <mxPoint x="280" y="160" as="targetPoint" />
          </mxGeometry>
        </mxCell>
        <mxCell id="IO_G3gP7IxYUmLnRqnUz-8" value="" style="endArrow=classic;html=1;rounded=0;entryX=1;entryY=0.5;entryDx=0;entryDy=0;exitX=0;exitY=0.5;exitDx=0;exitDy=0;" parent="1" source="IO_G3gP7IxYUmLnRqnUz-4" target="IO_G3gP7IxYUmLnRqnUz-6" edge="1">
          <mxGeometry width="50" height="50" relative="1" as="geometry">
            <mxPoint x="770" y="290" as="sourcePoint" />
            <mxPoint x="720" y="210" as="targetPoint" />
            <Array as="points" />
          </mxGeometry>
        </mxCell>
        <mxCell id="IO_G3gP7IxYUmLnRqnUz-9" value="&lt;font style=&quot;font-size: 18px;&quot; face=&quot;Roboto&quot;&gt;1&lt;/font&gt;" style="text;html=1;align=center;verticalAlign=middle;whiteSpace=wrap;rounded=0;" parent="1" vertex="1">
          <mxGeometry x="570" y="185" width="60" height="30" as="geometry" />
        </mxCell>
        <mxCell id="IO_G3gP7IxYUmLnRqnUz-10" value="&lt;font style=&quot;font-size: 18px;&quot; face=&quot;Roboto&quot;&gt;N&lt;/font&gt;" style="text;html=1;align=center;verticalAlign=middle;whiteSpace=wrap;rounded=0;" parent="1" vertex="1">
          <mxGeometry x="310" y="180" width="60" height="30" as="geometry" />
        </mxCell>
        <mxCell id="IO_G3gP7IxYUmLnRqnUz-11" value="&lt;span style=&quot;font-family: Roboto;&quot;&gt;&lt;font style=&quot;font-size: 14px;&quot;&gt;&lt;u&gt;employeeId&lt;/u&gt;&lt;/font&gt;&lt;/span&gt;" style="ellipse;whiteSpace=wrap;html=1;" parent="1" vertex="1">
          <mxGeometry y="300" width="80" height="40" as="geometry" />
        </mxCell>
        <mxCell id="IO_G3gP7IxYUmLnRqnUz-12" value="&lt;span style=&quot;font-family: Roboto;&quot;&gt;&lt;font style=&quot;font-size: 14px;&quot;&gt;employeeName&lt;/font&gt;&lt;/span&gt;" style="ellipse;whiteSpace=wrap;html=1;" parent="1" vertex="1">
          <mxGeometry x="90" y="300" width="100" height="40" as="geometry" />
        </mxCell>
        <mxCell id="IO_G3gP7IxYUmLnRqnUz-13" value="&lt;span style=&quot;font-family: Roboto;&quot;&gt;&lt;font style=&quot;font-size: 14px;&quot;&gt;sex&lt;/font&gt;&lt;/span&gt;" style="ellipse;whiteSpace=wrap;html=1;" parent="1" vertex="1">
          <mxGeometry x="200" y="300" width="70" height="40" as="geometry" />
        </mxCell>
        <mxCell id="IO_G3gP7IxYUmLnRqnUz-14" value="&lt;span style=&quot;font-family: Roboto;&quot;&gt;&lt;font style=&quot;font-size: 14px;&quot;&gt;address&lt;/font&gt;&lt;/span&gt;" style="ellipse;whiteSpace=wrap;html=1;" parent="1" vertex="1">
          <mxGeometry x="280" y="300" width="70" height="40" as="geometry" />
        </mxCell>
        <mxCell id="IO_G3gP7IxYUmLnRqnUz-15" value="&lt;span style=&quot;font-family: Roboto;&quot;&gt;&lt;font style=&quot;font-size: 14px;&quot;&gt;phone&lt;/font&gt;&lt;/span&gt;" style="ellipse;whiteSpace=wrap;html=1;" parent="1" vertex="1">
          <mxGeometry x="360" y="300" width="70" height="40" as="geometry" />
        </mxCell>
        <mxCell id="IO_G3gP7IxYUmLnRqnUz-16" value="&lt;span style=&quot;font-family: Roboto;&quot;&gt;&lt;font style=&quot;font-size: 14px;&quot;&gt;age&lt;/font&gt;&lt;/span&gt;" style="ellipse;whiteSpace=wrap;html=1;" parent="1" vertex="1">
          <mxGeometry x="440" y="300" width="70" height="40" as="geometry" />
        </mxCell>
        <mxCell id="IO_G3gP7IxYUmLnRqnUz-18" value="&lt;span style=&quot;font-family: Roboto;&quot;&gt;&lt;font style=&quot;font-size: 14px;&quot;&gt;status&lt;/font&gt;&lt;/span&gt;" style="ellipse;whiteSpace=wrap;html=1;" parent="1" vertex="1">
          <mxGeometry x="520" y="300" width="70" height="40" as="geometry" />
        </mxCell>
        <mxCell id="IO_G3gP7IxYUmLnRqnUz-19" value="" style="endArrow=none;html=1;rounded=0;exitX=0.635;exitY=-0.07;exitDx=0;exitDy=0;exitPerimeter=0;entryX=0;entryY=1;entryDx=0;entryDy=0;" parent="1" source="IO_G3gP7IxYUmLnRqnUz-11" target="IO_G3gP7IxYUmLnRqnUz-1" edge="1">
          <mxGeometry width="50" height="50" relative="1" as="geometry">
            <mxPoint x="120" y="290" as="sourcePoint" />
            <mxPoint x="170" y="240" as="targetPoint" />
          </mxGeometry>
        </mxCell>
        <mxCell id="IO_G3gP7IxYUmLnRqnUz-20" value="" style="endArrow=none;html=1;rounded=0;entryX=0.16;entryY=0.992;entryDx=0;entryDy=0;exitX=0.5;exitY=0;exitDx=0;exitDy=0;entryPerimeter=0;" parent="1" source="IO_G3gP7IxYUmLnRqnUz-12" target="IO_G3gP7IxYUmLnRqnUz-1" edge="1">
          <mxGeometry width="50" height="50" relative="1" as="geometry">
            <mxPoint x="390" y="390" as="sourcePoint" />
            <mxPoint x="440" y="340" as="targetPoint" />
          </mxGeometry>
        </mxCell>
        <mxCell id="IO_G3gP7IxYUmLnRqnUz-21" value="" style="endArrow=none;html=1;rounded=0;exitX=0.5;exitY=0;exitDx=0;exitDy=0;entryX=0.344;entryY=1.024;entryDx=0;entryDy=0;entryPerimeter=0;" parent="1" source="IO_G3gP7IxYUmLnRqnUz-13" target="IO_G3gP7IxYUmLnRqnUz-1" edge="1">
          <mxGeometry width="50" height="50" relative="1" as="geometry">
            <mxPoint x="150" y="290" as="sourcePoint" />
            <mxPoint x="200" y="240" as="targetPoint" />
          </mxGeometry>
        </mxCell>
        <mxCell id="IO_G3gP7IxYUmLnRqnUz-22" value="" style="endArrow=none;html=1;rounded=0;entryX=0.5;entryY=1;entryDx=0;entryDy=0;exitX=0.5;exitY=0;exitDx=0;exitDy=0;" parent="1" source="IO_G3gP7IxYUmLnRqnUz-14" target="IO_G3gP7IxYUmLnRqnUz-1" edge="1">
          <mxGeometry width="50" height="50" relative="1" as="geometry">
            <mxPoint x="390" y="390" as="sourcePoint" />
            <mxPoint x="440" y="340" as="targetPoint" />
          </mxGeometry>
        </mxCell>
        <mxCell id="IO_G3gP7IxYUmLnRqnUz-23" value="" style="endArrow=none;html=1;rounded=0;entryX=0.75;entryY=1;entryDx=0;entryDy=0;exitX=0.5;exitY=0;exitDx=0;exitDy=0;" parent="1" source="IO_G3gP7IxYUmLnRqnUz-15" target="IO_G3gP7IxYUmLnRqnUz-1" edge="1">
          <mxGeometry width="50" height="50" relative="1" as="geometry">
            <mxPoint x="390" y="390" as="sourcePoint" />
            <mxPoint x="440" y="340" as="targetPoint" />
          </mxGeometry>
        </mxCell>
        <mxCell id="IO_G3gP7IxYUmLnRqnUz-24" value="" style="endArrow=none;html=1;rounded=0;entryX=1;entryY=1;entryDx=0;entryDy=0;exitX=0.5;exitY=0;exitDx=0;exitDy=0;" parent="1" source="IO_G3gP7IxYUmLnRqnUz-16" target="IO_G3gP7IxYUmLnRqnUz-1" edge="1">
          <mxGeometry width="50" height="50" relative="1" as="geometry">
            <mxPoint x="390" y="390" as="sourcePoint" />
            <mxPoint x="440" y="340" as="targetPoint" />
          </mxGeometry>
        </mxCell>
        <mxCell id="IO_G3gP7IxYUmLnRqnUz-25" value="" style="endArrow=none;html=1;rounded=0;entryX=1;entryY=0.75;entryDx=0;entryDy=0;exitX=0.5;exitY=0;exitDx=0;exitDy=0;" parent="1" source="IO_G3gP7IxYUmLnRqnUz-18" target="IO_G3gP7IxYUmLnRqnUz-1" edge="1">
          <mxGeometry width="50" height="50" relative="1" as="geometry">
            <mxPoint x="390" y="390" as="sourcePoint" />
            <mxPoint x="440" y="340" as="targetPoint" />
          </mxGeometry>
        </mxCell>
        <mxCell id="IO_G3gP7IxYUmLnRqnUz-26" value="&lt;span style=&quot;font-family: Roboto;&quot;&gt;&lt;font style=&quot;font-size: 14px;&quot;&gt;&lt;u&gt;departmentId&lt;/u&gt;&lt;/font&gt;&lt;/span&gt;" style="ellipse;whiteSpace=wrap;html=1;" parent="1" vertex="1">
          <mxGeometry x="540" y="80" width="100" height="40" as="geometry" />
        </mxCell>
        <mxCell id="IO_G3gP7IxYUmLnRqnUz-27" value="&lt;span style=&quot;font-family: Roboto;&quot;&gt;&lt;font style=&quot;font-size: 14px;&quot;&gt;departmentName&lt;/font&gt;&lt;/span&gt;" style="ellipse;whiteSpace=wrap;html=1;" parent="1" vertex="1">
          <mxGeometry x="670" y="80" width="130" height="40" as="geometry" />
        </mxCell>
        <mxCell id="IO_G3gP7IxYUmLnRqnUz-28" value="&lt;span style=&quot;font-family: Roboto;&quot;&gt;&lt;font style=&quot;font-size: 14px;&quot;&gt;status&lt;/font&gt;&lt;/span&gt;" style="ellipse;whiteSpace=wrap;html=1;" parent="1" vertex="1">
          <mxGeometry x="827" y="80" width="70" height="40" as="geometry" />
        </mxCell>
        <mxCell id="IO_G3gP7IxYUmLnRqnUz-29" value="" style="endArrow=none;html=1;rounded=0;entryX=0.25;entryY=0;entryDx=0;entryDy=0;exitX=0.5;exitY=1;exitDx=0;exitDy=0;" parent="1" source="IO_G3gP7IxYUmLnRqnUz-26" target="IO_G3gP7IxYUmLnRqnUz-4" edge="1">
          <mxGeometry width="50" height="50" relative="1" as="geometry">
            <mxPoint x="390" y="290" as="sourcePoint" />
            <mxPoint x="440" y="240" as="targetPoint" />
          </mxGeometry>
        </mxCell>
        <mxCell id="IO_G3gP7IxYUmLnRqnUz-30" value="" style="endArrow=none;html=1;rounded=0;entryX=0.5;entryY=0;entryDx=0;entryDy=0;exitX=0.5;exitY=1;exitDx=0;exitDy=0;" parent="1" source="IO_G3gP7IxYUmLnRqnUz-27" target="IO_G3gP7IxYUmLnRqnUz-4" edge="1">
          <mxGeometry width="50" height="50" relative="1" as="geometry">
            <mxPoint x="390" y="290" as="sourcePoint" />
            <mxPoint x="440" y="240" as="targetPoint" />
          </mxGeometry>
        </mxCell>
        <mxCell id="IO_G3gP7IxYUmLnRqnUz-31" value="" style="endArrow=none;html=1;rounded=0;entryX=0.75;entryY=0;entryDx=0;entryDy=0;exitX=0.5;exitY=1;exitDx=0;exitDy=0;" parent="1" source="IO_G3gP7IxYUmLnRqnUz-28" target="IO_G3gP7IxYUmLnRqnUz-4" edge="1">
          <mxGeometry width="50" height="50" relative="1" as="geometry">
            <mxPoint x="390" y="290" as="sourcePoint" />
            <mxPoint x="440" y="240" as="targetPoint" />
          </mxGeometry>
        </mxCell>
      </root>
    </mxGraphModel>
  </diagram>
</mxfile>
